<svg width="1647" height="384" viewBox="0 0 1647 384" fill="none" xmlns="http://www.w3.org/2000/svg">
<path d="M308.07 284.654C278.227 331.485 226.346 363.164 167.12 363.164C74.8368 363.164 0.000238532 287.409 0.000238532 195.126C0.000238532 103.302 74.8368 28.0062 167.12 28.0062C226.346 28.0062 277.768 59.2263 307.152 106.516C259.862 49.1257 216.705 37.1886 167.12 37.1886C58.7676 37.1886 4.59144 126.258 4.59144 195.126C4.59144 259.862 55.0946 347.095 139.573 351.227C257.567 356.736 113.862 332.862 119.831 333.321C205.227 340.667 273.636 337.453 308.07 284.654ZM495.319 28.0062C587.602 28.0062 664.734 101.465 664.734 195.126C664.734 290.164 587.602 363.164 495.319 363.164C403.495 363.164 328.199 287.409 328.199 195.126C328.199 102.843 403.495 28.0062 495.319 28.0062ZM332.791 195.126C332.791 259.862 381.457 344.799 467.772 349.849C557.3 355.359 420.942 328.271 448.03 333.321C485.218 340.208 523.325 347.554 559.596 332.403C615.608 306.692 660.143 272.258 660.143 195.126C660.143 117.994 604.59 63.8176 552.709 45.4527C562.351 51.4213 571.992 60.1446 580.715 72.0817C561.432 46.371 526.998 41.7798 508.174 41.7798C390.181 41.7798 332.791 122.126 332.791 195.126ZM691.98 363.164C691.98 363.164 705.295 342.503 710.345 196.503C713.1 103.302 695.194 28.0062 685.093 28.0062H745.238C694.276 28.0062 710.345 120.289 716.773 89.9874C729.169 33.5156 758.093 28.0062 775.54 28.0062C857.723 28.0062 934.396 101.925 934.396 196.962C934.396 288.327 869.201 363.164 787.936 363.164H775.54C746.615 363.164 758.093 329.189 731.924 329.189C704.376 329.189 706.672 363.164 691.98 363.164ZM714.018 196.503C714.018 280.522 741.565 326.893 759.93 348.013C803.546 383.365 929.804 293.837 929.804 196.044C929.804 106.516 861.395 49.1257 810.433 37.6477C758.093 28.0062 828.339 71.6226 793.446 48.6666C782.427 41.7798 764.062 31.6791 747.075 51.8804C708.509 104.22 733.301 204.767 740.647 280.063C741.106 284.195 714.018 151.509 714.018 196.503ZM1057.86 51.8804C1039.04 75.2955 1019.29 122.585 1010.57 217.623H1009.65C1010.57 198.34 1011.49 167.579 1005.98 196.503C1003.68 208.899 1002.31 220.837 1001.39 231.855C1016.54 232.774 1073.93 237.365 1108.82 237.365C1129.48 237.365 1144.17 230.937 1150.14 227.723C1135.45 122.126 1103.31 -0.000125858 1057.86 51.8804ZM954.557 363.164C954.557 363.164 972.004 342.503 1003.22 196.503C1023.43 103.761 1024.34 59.6855 1020.67 41.3207C1019.29 34.893 1025.72 28.0062 1032.61 28.0062H1069.34C1018.38 28.0062 1007.36 58.3081 1044.09 39.4842C1068.88 26.6288 1098.26 28.0062 1099.64 28.0062C1143.71 28.0062 1140.96 217.164 1184.12 363.623C1174.48 363.623 1159.32 354.441 1159.32 335.617C1159.32 318.17 1157.49 292.918 1154.27 263.994C1151.98 261.239 1129.02 235.528 1047.3 250.679C1091.38 241.497 1119.84 241.038 1108.82 241.038C1032.61 241.038 1005.06 265.371 1000.93 269.503C1005.52 338.371 1037.66 363.164 1038.12 363.164H994.042C1024.34 363.164 1024.34 329.648 1000.93 329.648C973.381 329.648 969.249 363.164 954.557 363.164ZM997.715 231.396C997.715 231.396 999.092 231.396 1001.39 231.855V232.315C1000.93 235.528 1000.93 239.201 1000.93 242.415C1003.68 265.371 1028.02 256.189 1028.02 245.17C1028.02 238.283 1009.19 233.692 1001.39 232.315L997.715 231.396ZM1000.47 269.962V237.824C1000.47 239.661 1000.47 241.038 1000.93 242.415C1000.47 252.057 1000.47 261.239 1000.93 269.503L1000.47 269.962ZM1057.86 51.8804C1063.37 35.3521 1072.09 28.9244 1099.64 28.0062C1098.26 28.9244 1078.52 25.7106 1057.86 51.8804ZM1124.43 238.742C1145.55 240.12 1151.98 251.598 1153.82 258.484C1153.36 255.73 1153.36 252.975 1152.9 250.22V250.679C1152.9 250.22 1152.9 250.22 1152.9 250.22L1152.44 247.925C1150.14 235.528 1128.56 237.824 1124.43 238.742ZM1150.14 227.723C1151.98 226.805 1152.9 225.887 1152.9 225.887C1152.9 225.887 1152.9 242.415 1152.9 250.22C1152.9 249.302 1152.9 248.843 1152.44 247.925L1150.14 227.723ZM1153.82 258.484C1154.73 261.698 1154.73 263.994 1154.73 264.453C1154.73 264.453 1154.73 264.453 1154.27 263.994L1153.82 258.484ZM1385.65 363.164C1444.87 359.491 1375.55 333.321 1309.43 234.61C1303.46 225.887 1291.53 198.799 1274.54 198.799H1250.66C1253.42 226.805 1257.55 254.811 1259.85 280.063C1260.31 284.195 1237.81 166.201 1237.81 211.195C1237.81 336.076 1262.14 363.164 1262.6 363.164H1250.66C1210.72 363.164 1241.02 348.013 1243.32 348.013C1215.77 348.013 1225.87 363.164 1211.18 363.164C1211.18 363.164 1224.49 342.503 1229.55 196.503C1232.3 103.302 1214.39 28.0062 1204.29 28.0062H1264.44C1213.48 28.0062 1229.55 120.289 1235.97 89.9874C1245.61 46.8301 1269.03 33.0565 1284.18 29.3835C1287.85 28.4653 1291.53 28.0062 1294.74 28.0062H1352.59C1398.5 28.0062 1434.31 65.1949 1434.31 113.862C1434.31 159.315 1400.34 198.799 1356.72 198.799H1317.7C1303.46 200.635 1322.75 236.906 1344.78 262.617C1361.31 281.9 1295.66 207.522 1319.99 241.038C1361.31 297.051 1398.04 329.189 1421 347.095C1427.43 352.145 1431.56 354.441 1431.56 363.164H1385.65ZM1248.37 174.465C1251.12 194.667 1258.01 194.208 1266.73 194.208H1319.07C1366.36 194.208 1315.86 185.025 1322.29 185.943C1344.78 189.157 1364.53 193.289 1382.43 185.025C1409.52 172.17 1429.72 151.509 1429.72 113.862C1429.72 65.1949 1395.75 39.0251 1365.44 33.0565C1336.06 27.5471 1386.56 83.5597 1353.97 46.8301C1339.73 30.7609 1297.49 22.4967 1275.46 43.6163C1247.91 73.4591 1244.7 122.585 1248.37 174.465ZM1472.46 363.164C1549.13 325.057 1524.34 200.635 1515.61 111.107C1515.15 106.975 1533.98 239.661 1533.98 194.667C1533.98 69.7861 1476.59 49.1257 1471.54 49.1257C1472 49.1257 1527.09 48.2075 1515.61 49.1257C1485.31 51.4213 1492.2 69.7861 1515.61 69.7861C1539.95 69.7861 1543.16 41.7798 1553.72 35.8112C1478.88 32.1383 1494.03 61.0628 1413.23 28.0062C1476.59 32.1383 1537.19 32.5974 1601.47 23.415C1646.46 16.9873 1622.13 61.0628 1581.27 67.4905C1606.06 61.0628 1619.37 40.8616 1568.87 36.7295L1557.85 35.8112C1554.64 41.7798 1541.78 69.327 1537.65 194.667C1534.9 287.868 1552.8 363.164 1562.9 363.164H1502.76C1553.72 363.164 1537.65 270.881 1531.22 301.183C1518.83 357.654 1472.46 363.164 1472.46 363.164Z" fill="white"/>
</svg>
