<svg width="309" height="336" viewBox="0 0 309 336" fill="none" xmlns="http://www.w3.org/2000/svg">
<path d="M308.071 256.648C278.228 303.478 226.347 335.158 167.121 335.158C74.8377 335.158 0.00110828 259.403 0.00110828 167.12C0.00110828 75.2958 74.8377 8.73734e-05 167.121 8.73734e-05C226.347 8.73734e-05 277.769 31.2202 307.152 78.5096C259.863 21.1196 216.706 9.18248 167.121 9.18248C58.7685 9.18248 4.59231 98.2518 4.59231 167.12C4.59231 231.856 55.0955 319.089 139.574 323.221C257.567 328.73 113.863 304.856 119.831 305.315C205.228 312.661 273.637 309.447 308.071 256.648Z" fill="white"/>
</svg>
